<?xml version="1.0" standalone="no"?><!DOCTYPE svg PUBLIC "-//W3C//DTD SVG 1.1//EN" "http://www.w3.org/Graphics/SVG/1.1/DTD/svg11.dtd"><svg t="1740230662954" class="icon" viewBox="0 0 1024 1024" version="1.1" xmlns="http://www.w3.org/2000/svg" p-id="90097" xmlns:xlink="http://www.w3.org/1999/xlink" width="64" height="64"><path d="M959.4 172.4l-107.6-107.8c-3.2-3.2-7-5.6-11.2-7.4-12-5-26.4-2.6-36.2 7.4L610.8 258l-158.2-158.2c-5-4.8-11-8-17.4-9.2-10.6-2.2-22 0.8-30.2 9.2L284 221 802.8 740l120-120c0.6-0.4 1-1 1.6-1.4 13-13 13-34 0-47.2l-158.6-158.6 191.8-191.8c0.6-0.6 1.2-1 1.8-1.6 13.2-13 13.2-34 0-47zM236.8 268l-172.2 172.2c-3.2 3.2-5.6 7-7.4 11.2-5 12-2.6 26.4 7.4 36.2L153.2 576l98.2-98.2c13-13 34-13 47.2 0 13 13 13 34.2 0 47.2l-98.2 98.2 77.2 77.2 126.8-126.8c13-13 34-13 47.2 0 13 13 13 34.2 0 47.2l-126.8 126.8 75.6 75.6c0.6-0.6 1.2-1.2 1.8-2l96.4-96.4c13-13 34-13 47.2 0 13 13 13 34 0 47.2l-96.4 96.4c-0.6 0.6-1.4 1.2-2 1.8l89.4 89.2c9 9 21.8 11.8 33.2 8.4 0.2 0 0.4-0.2 0.6-0.2 0.8-0.2 1.6-0.6 2.4-0.8 0.4-0.2 0.6-0.4 1-0.4 0.6-0.2 1.2-0.6 2-0.8l1.2-0.6c0.6-0.4 1.2-0.6 1.8-1 0.4-0.2 0.8-0.6 1-0.8 0.6-0.4 1.2-0.8 1.6-1.2 0.4-0.2 0.8-0.6 1-1 0.4-0.4 1-0.8 1.4-1.2l172.2-172.2L236.8 268z" p-id="90098" fill="#8a8a8a"></path></svg>