<?xml version="1.0" standalone="no"?><!DOCTYPE svg PUBLIC "-//W3C//DTD SVG 1.1//EN" "http://www.w3.org/Graphics/SVG/1.1/DTD/svg11.dtd"><svg t="1740229837869" class="icon" viewBox="0 0 1024 1024" version="1.1" xmlns="http://www.w3.org/2000/svg" p-id="3860" xmlns:xlink="http://www.w3.org/1999/xlink" width="64" height="64"><path d="M893.44 626.688v249.088H122.88v-249.088a51.2 51.2 0 0 0-101.12 0v290.048a60.416 60.416 0 0 0 60.416 60.16h851.968a60.416 60.416 0 0 0 60.416-60.16V626.688a51.2 51.2 0 0 0-102.4 0z m0 0" p-id="3861" fill="#8a8a8a"></path><path d="M472.32 93.952L283.904 281.6a51.2 51.2 0 1 0 71.424 71.424L453.888 256v360.96a54.272 54.272 0 1 0 108.544 0V256l98.304 98.56A51.2 51.2 0 0 0 732.16 281.6l-188.416-187.648a51.2 51.2 0 0 0-71.424 0z m0 0" p-id="3862" fill="#8a8a8a"></path></svg>