<?xml version="1.0" standalone="no"?><!DOCTYPE svg PUBLIC "-//W3C//DTD SVG 1.1//EN" "http://www.w3.org/Graphics/SVG/1.1/DTD/svg11.dtd"><svg t="1740408798739" class="icon" viewBox="0 0 1024 1024" version="1.1" xmlns="http://www.w3.org/2000/svg" p-id="110703" xmlns:xlink="http://www.w3.org/1999/xlink" width="64" height="64"><path d="M820.363636 0c112.465455 0 203.636364 91.170909 203.636364 203.636364v616.727272c0 112.465455-91.170909 203.636364-203.636364 203.636364H203.636364c-112.465455 0-203.636364-91.170909-203.636364-203.636364V203.636364C0 91.170909 91.170909 0 203.636364 0h616.727272z m0 81.454545H203.636364c-67.479273 0-122.181818 54.702545-122.181819 122.181819v616.727272c0 67.479273 54.702545 122.181818 122.181819 122.181819h616.727272c67.479273 0 122.181818-54.702545 122.181819-122.181819V203.636364c0-67.479273-54.702545-122.181818-122.181819-122.181819zM442.210909 262.894545L532.363636 672l61.085091-208.250182c2.123636-5.236364 15.173818-38.574545 56.738909-35.083636 25.000727 2.106182 42.589091 30.213818 46.917819 35.083636l54.690909 71.778909h95.924363c24.192 0.436364 30.824727 25.268364 30.824728 36.683637 0 14.836364-6.923636 36.654545-30.824728 37.818181h-95.924363c-34.967273 1.233455-41.204364-4.875636-68.695273-34.181818l-32.913455-40.32-65.466181 234.338909c-10.920727 20.945455-31.121455 33.669818-51.642182 33.018182-23.034182-2.309818-45.696-18.059636-52.526546-40L389.818182 372.363636l-48.482909 199.121455c-6.667636 23.197091-29.323636 39.272727-55.348364 39.272727H172.544C152.669091 608.930909 145.454545 586.612364 145.454545 572.869818c0-13.818182 12.130909-31.563636 27.089455-31.563636H270.545455c1.245091 0 2.496-0.872727 2.862545-2.036364l69.469091-276.375273c3.810909-13.527273 16.308364-40.541091 47.906909-41.704727v-0.075636c28.078545-1.018182 49.594182 27.746909 51.426909 41.780363z" fill="#ffffff" p-id="110704"></path></svg>