<?xml version="1.0" standalone="no"?><!DOCTYPE svg PUBLIC "-//W3C//DTD SVG 1.1//EN" "http://www.w3.org/Graphics/SVG/1.1/DTD/svg11.dtd"><svg t="1740228492283" class="icon" viewBox="0 0 1024 1024" version="1.1" xmlns="http://www.w3.org/2000/svg" p-id="47503" xmlns:xlink="http://www.w3.org/1999/xlink" width="64" height="64"><path d="M739.555556 961.422222c-17.066667 0-39.822222-11.377778-51.2-28.444444-17.066667-28.444444-5.688889-62.577778 22.755555-79.644445 125.155556-68.266667 199.111111-199.111111 199.111111-341.333333 0-221.866667-176.355556-398.222222-398.222222-398.222222S113.777778 290.133333 113.777778 512c0 142.222222 73.955556 273.066667 199.111111 347.022222 28.444444 11.377778 34.133333 51.2 22.755555 73.955556-17.066667 28.444444-51.2 34.133333-79.644444 22.755555C96.711111 864.711111 0 694.044444 0 512c0-284.444444 227.555556-512 512-512s512 227.555556 512 512c0 182.044444-96.711111 352.711111-256 443.733333-11.377778 5.688889-17.066667 5.688889-28.444444 5.688889z" p-id="47504" fill="#8a8a8a"></path><path d="M739.555556 426.666667c0 51.2-11.377778 91.022222-34.133334 125.155555-11.377778 11.377778-34.133333 39.822222-79.644444 79.644445-17.066667 11.377778-28.444444 28.444444-39.822222 45.511111-11.377778 17.066667-11.377778 39.822222-17.066667 56.888889v22.755555c-5.688889 22.755556-28.444444 39.822222-56.888889 39.822222s-51.2-17.066667-56.888889-39.822222v-5.688889-11.377777c0-39.822222 5.688889-73.955556 17.066667-96.711112 11.377778-28.444444 45.511111-73.955556 108.088889-130.844444l11.377777-11.377778c17.066667-22.755556 28.444444-45.511111 28.444445-68.266666 0-28.444444-11.377778-56.888889-28.444445-73.955556-17.066667-17.066667-39.822222-28.444444-73.955555-28.444444-39.822222 0-73.955556 11.377778-91.022222 39.822222-17.066667 17.066667-22.755556 39.822222-22.755556 79.644444V455.111111c0 34.133333-28.444444 62.577778-56.888889 62.577778s-56.888889-28.444444-56.888889-62.577778c0-79.644444 17.066667-119.466667 62.577778-159.288889 39.822222-45.511111 96.711111-68.266667 170.666667-68.266666 68.266667 0 119.466667 17.066667 159.288889 51.2 39.822222 34.133333 56.888889 85.333333 56.888889 147.911111zM551.822222 927.288889c11.377778 11.377778 17.066667 22.755556 17.066667 39.822222 0 17.066667-5.688889 28.444444-17.066667 39.822222-11.377778 11.377778-22.755556 17.066667-39.822222 17.066667s-28.444444-5.688889-39.822222-17.066667c-11.377778-11.377778-17.066667-22.755556-17.066667-39.822222 0-17.066667 5.688889-28.444444 17.066667-39.822222 11.377778-11.377778 22.755556-17.066667 39.822222-17.066667 17.066667 0 28.444444 5.688889 39.822222 17.066667z" p-id="47505" fill="#8a8a8a"></path></svg>