<?xml version="1.0" standalone="no"?><!DOCTYPE svg PUBLIC "-//W3C//DTD SVG 1.1//EN" "http://www.w3.org/Graphics/SVG/1.1/DTD/svg11.dtd"><svg t="1739975478646" class="icon" viewBox="0 0 1024 1024" version="1.1" xmlns="http://www.w3.org/2000/svg" p-id="71644" xmlns:xlink="http://www.w3.org/1999/xlink" width="64" height="64"><path d="M860.16 869.325H163.84a84.531 84.531 0 0 1-84.48-84.429V239.104a84.531 84.531 0 0 1 84.48-84.429h300.595a120.627 120.627 0 0 1 94.874 46.592l46.899 60.672a65.382 65.382 0 0 0 51.2 25.242H860.16a84.531 84.531 0 0 1 84.48 84.429v413.286a84.531 84.531 0 0 1-84.48 84.429z m-696.32-668.57a38.4 38.4 0 0 0-38.4 38.349v545.792a38.4 38.4 0 0 0 38.4 38.349h696.32a38.4 38.4 0 0 0 38.349-38.349V371.61a38.4 38.4 0 0 0-38.349-38.35H657.613a111.718 111.718 0 0 1-87.86-43.16l-46.899-60.673a74.291 74.291 0 0 0-58.419-28.672z" fill="#2c2c2c" p-id="71645"></path><path d="M819.2 429.62H114.432a23.04 23.04 0 1 1 0-46.08H819.2a23.04 23.04 0 0 1 0 46.08z" fill="#2c2c2c" p-id="71646"></path></svg>