<?xml version="1.0" standalone="no"?><!DOCTYPE svg PUBLIC "-//W3C//DTD SVG 1.1//EN" "http://www.w3.org/Graphics/SVG/1.1/DTD/svg11.dtd"><svg t="1740229721412" class="icon" viewBox="0 0 1024 1024" version="1.1" xmlns="http://www.w3.org/2000/svg" p-id="3263" xmlns:xlink="http://www.w3.org/1999/xlink" width="64" height="64"><path d="M626.176 862.72a44.288 44.288 0 0 0-51.2-19.2 341.504 341.504 0 0 1-132.864 15.36A347.904 347.904 0 1 1 808.704 435.2a27.904 27.904 0 0 0 18.432 20.992l12.032 3.584a25.6 25.6 0 0 0 7.68 1.28h18.176l25.6-11.52a27.392 27.392 0 0 0 5.632-22.784A435.2 435.2 0 0 0 317.696 102.4a468.48 468.48 0 0 0-253.184 245.248A436.992 436.992 0 0 0 469.504 947.2a431.36 431.36 0 0 0 133.12-20.992 43.008 43.008 0 0 0 24.064-62.464z" p-id="3264" fill="#8a8a8a"></path><path d="M712.448 347.392a43.264 43.264 0 0 0-31.232 13.056 43.776 43.776 0 0 0 0 61.696L819.2 556.032a43.52 43.52 0 0 0 30.464 12.288 43.52 43.52 0 0 0 30.464-74.496L742.4 359.936a42.24 42.24 0 0 0-30.208-12.544z" p-id="3265" fill="#8a8a8a"></path><path d="M963.84 321.024a43.008 43.008 0 0 0-36.096 19.456l-106.496 159.488a43.52 43.52 0 0 0 12.032 60.16 42.24 42.24 0 0 0 24.064 7.424 43.776 43.776 0 0 0 36.352-19.456l106.24-159.488a43.52 43.52 0 0 0-36.096-67.584z" p-id="3266" fill="#8a8a8a"></path></svg>