<?xml version="1.0" standalone="no"?><!DOCTYPE svg PUBLIC "-//W3C//DTD SVG 1.1//EN" "http://www.w3.org/Graphics/SVG/1.1/DTD/svg11.dtd"><svg t="1740228944559" class="icon" viewBox="0 0 1024 1024" version="1.1" xmlns="http://www.w3.org/2000/svg" p-id="55804" xmlns:xlink="http://www.w3.org/1999/xlink" width="64" height="64"><path d="M 977.7 1023.6 c -11.9 0 -23.8 -4.5 -32.9 -13.6 L 722.2 787.6 c -18.2 -18.2 -18.2 -47.6 0 -65.8 c 18.2 -18.2 47.6 -18.2 65.8 0 l 222.6 222.4 c 18.2 18.2 18.2 47.6 0 65.8 c -9 9.1 -20.9 13.6 -32.9 13.6 Z" p-id="55805" fill="#8a8a8a"></path><path d="M 461.6 922.9 c -123.1 0 -238.9 -47.9 -326 -134.9 C 48.4 700.9 0.4 585.1 0.3 461.8 C 0.2 338.6 48.1 222.7 135.2 135.5 c 179.8 -180 472.5 -180.1 652.4 -0.4 c 87.2 87.1 135.2 202.9 135.3 326.1 c 0.1 123.3 -47.8 239.2 -134.9 326.4 c -87 87.2 -202.9 135.2 -326.1 135.3 h -0.3 Z m 0 -829.6 h -0.2 c -98.4 0.1 -190.8 38.4 -260.3 108 S 93.3 363.4 93.4 461.8 s 38.4 190.8 108 260.3 c 69.5 69.5 162 107.7 260.2 107.7 h 0.2 c 98.4 -0.1 190.8 -38.4 260.3 -108 s 107.8 -162.1 107.7 -260.5 c -0.1 -98.4 -38.4 -190.8 -108 -260.3 c -69.5 -69.4 -161.9 -107.7 -260.2 -107.7 Z" p-id="55806" fill="#8a8a8a"></path></svg>